<svg xmlns="http://www.w3.org/2000/svg" width="1619.053" height="2841.393" viewBox="0 0 1619.053 2841.393"><g transform="translate(256.053 -1184.411)"><path d="M844.482,1695.2h0c-28.945-2.341-58.028-6.1-86.44-11.182-28.008-5.006-56.047-11.413-83.336-19.044-26.944-7.534-53.806-16.44-79.84-26.473-25.749-9.922-51.3-21.183-75.948-33.468-24.425-12.175-48.536-25.643-71.664-40.03-22.968-14.288-45.5-29.818-66.985-46.159-21.38-16.265-42.21-33.711-61.913-51.855-19.657-18.1-38.648-37.318-56.447-57.117s-34.82-40.641-50.587-61.946c-15.807-21.359-30.723-43.679-44.333-66.341-13.678-22.775-26.357-46.429-37.686-70.3-11.411-24.049-21.721-48.89-30.644-73.833A790.3,790.3,0,0,1,54.374,815.5c1.784-25.512,4.822-51.17,9.03-76.26,4.152-24.756,9.546-49.58,16.033-73.78,6.408-23.908,14.042-47.8,22.688-71.011,8.554-22.965,18.31-45.828,29-67.953,10.588-21.923,22.348-43.66,34.955-64.606,12.512-20.789,26.161-41.3,40.567-60.969,14.326-19.558,29.746-38.75,45.831-57.044,16.028-18.229,33.1-36,50.748-52.83,17.619-16.8,36.23-33.06,55.317-48.326s39.126-29.919,59.538-43.534c20.461-13.647,41.8-26.584,63.412-38.452,21.713-11.921,44.234-23.052,66.938-33.082,22.848-10.094,46.438-19.32,70.116-27.422,23.872-8.168,48.415-15.393,72.947-21.473,24.775-6.141,50.153-11.267,75.43-15.236,25.565-4.014,51.662-6.944,77.565-8.709V1695.2Z" transform="translate(518.519 1129.603)" fill="rgba(112,112,112,0.12)"/><path d="M292.947,1852.8h0V1815H506.822c-17.3,5.1-34.926,9.76-52.381,13.859-26.145,6.14-52.933,11.266-79.619,15.236C347.83,1848.11,320.283,1851.04,292.947,1852.8Zm253.387-50.383h0V265.489c3.42,1.205,6.816,2.424,10.095,3.621,27.172,9.92,54.144,21.18,80.168,33.467,25.782,12.175,51.232,25.643,75.645,40.03,24.25,14.292,48.039,29.823,70.706,46.159,22.575,16.27,44.562,33.716,65.353,51.854,20.75,18.1,40.8,37.32,59.583,57.117s36.76,40.649,53.4,61.946c16.689,21.364,32.433,43.685,46.8,66.342a806,806,0,0,1,39.778,70.3,783.9,783.9,0,0,1,32.347,73.832,766.169,766.169,0,0,1,24.5,76.928,754.648,754.648,0,0,1,16.234,79.591,750.779,750.779,0,0,1,7.554,81.82,755.785,755.785,0,0,1-27.995,233.656c-6.763,23.9-14.821,47.8-23.948,71.011-9.027,22.96-19.324,45.823-30.606,67.954-11.177,21.925-23.59,43.662-36.9,64.606-13.2,20.783-27.609,41.3-42.819,60.97-15.129,19.567-31.406,38.759-48.378,57.044-16.918,18.229-34.941,36-53.566,52.83-18.6,16.8-38.245,33.061-58.39,48.326s-41.3,29.919-62.845,43.533c-21.6,13.648-44.118,26.585-66.935,38.452-22.914,11.919-46.686,23.049-70.655,33.082-19.273,8.066-39.163,15.622-59.116,22.457Z" transform="translate(-549 2173)" fill="rgba(112,112,112,0.12)"/></g></svg>