<svg xmlns="http://www.w3.org/2000/svg" width="327.944" height="415.384" viewBox="0 0 327.944 415.384"><g transform="translate(2.819 -122.207)"><g transform="translate(56.398 122.207)"><g transform="translate(16.215)"><path d="M179.685,160.278c-.157-5.5,4.931-9.752,10.051-11.766s10.812-2.775,15.377-5.847c4.042-2.72,6.758-6.964,10.18-10.432a33.871,33.871,0,0,1,56.965,15.541c1.967,7.834.624,17.1-5.551,22.3-7.167,6.041-17.791,4.7-26.974,2.821s-19.576-3.734-27.243,1.659c-4.623,3.251-7.273,8.542-10.1,13.437s-6.374,9.894-11.719,11.735-12.6-1.337-12.811-6.986" transform="translate(-177.859 -122.207)" fill="#263238"/></g><g transform="translate(0 16.506)"><path d="M182.519,159.863c.6,4.61-2.731,8.738-6.053,11.993s-7.072,6.707-7.659,11.32c-.684,5.388,3.249,10.695,2.107,16-.723,3.371-3.345,5.967-4.936,9.027A19.189,19.189,0,0,0,165,222.342c1.369,4.643,3.551,15.012,6.778,18.619,8.926,9.979,23.136,18.589,36.183,21.587s26.6,3.015,39.962,2.193c10.938-.673,23.517-.17,32.632-15.219,4.721-7.793,7.06-18.157,9.57-26.917,2.16-7.543,4.028-15.62,1.783-23.137-1.309-4.38-3.945-8.275-5.235-12.661-1.611-5.479-1.024-11.337-1.672-17.012a39.03,39.03,0,0,0-55.531-30.818" transform="translate(-164.108 -135.279)" fill="#263238"/></g><g transform="translate(5.828 7.737)"><g transform="translate(25.688 18.905)"><path d="M257.8,176.658c-1.025-15.7-11.469-34.937-27.108-33.247l-48.818,12.454a9.2,9.2,0,0,0-8.215,9.354l5.488,117.776-.338.074s11.128,33.219,43.409,23.071c6.4-2.013,9.324-9.014,10.592-16.216l.331.043c.013-.856.023-1.652.034-2.469a77.081,77.081,0,0,0,.192-16.172h0c.091-9.509.081-13.409.087-13.321,0,0,20.05-3.374,24.147-29.553C259.64,215.434,258.939,194.1,257.8,176.658Z" transform="translate(-173.658 -143.307)" fill="#ffbe9d"/></g><g transform="translate(15.632 13.324)"><g transform="translate(34.785 35.865)"><g transform="translate(0 10.663)"><g transform="translate(41.545)"><g transform="translate(3.309 5.149)"><path d="M187.451,182.839a3.354,3.354,0,0,1-3.229,3.393,3.21,3.21,0,0,1-3.466-3.018,3.359,3.359,0,0,1,3.225-3.4A3.211,3.211,0,0,1,187.451,182.839Z" transform="translate(-180.754 -179.814)" fill="#263238"/></g><path d="M191.4,179.25c-.414.438-2.962-1.437-6.573-1.421-3.607-.034-6.254,1.83-6.647,1.389-.193-.2.23-.986,1.381-1.83a9.221,9.221,0,0,1,5.32-1.653,8.849,8.849,0,0,1,5.234,1.677C191.225,178.263,191.6,179.053,191.4,179.25Z" transform="translate(-178.133 -175.736)" fill="#263238"/></g><g transform="translate(6.046 0.753)"><g transform="translate(3.309 4.396)"><path d="M215.565,182.839a3.354,3.354,0,0,1-3.229,3.393,3.21,3.21,0,0,1-3.466-3.018,3.359,3.359,0,0,1,3.226-3.4A3.211,3.211,0,0,1,215.565,182.839Z" transform="translate(-208.868 -179.814)" fill="#263238"/></g><path d="M219.513,179.846c-.417.438-2.966-1.437-6.575-1.419-3.607-.035-6.254,1.828-6.647,1.388-.192-.2.225-.986,1.381-1.83a9.211,9.211,0,0,1,5.32-1.653,8.849,8.849,0,0,1,5.234,1.677C219.336,178.859,219.716,179.649,219.513,179.846Z" transform="translate(-206.247 -176.332)" fill="#263238"/></g><g transform="translate(30.72 0.932)"><path d="M190.336,206.562c-.018-.2,2.226-.6,5.864-1.071.922-.1,1.794-.283,1.948-.912a4.694,4.694,0,0,0-.623-2.732q-1.307-3.345-2.743-7.017c-3.809-9.989-6.57-18.205-6.166-18.354s3.82,7.826,7.629,17.815q1.375,3.7,2.628,7.058c.351,1.047.955,2.235.486,3.619a2.311,2.311,0,0,1-1.513,1.351,6.226,6.226,0,0,1-1.566.221C192.622,206.746,190.35,206.768,190.336,206.562Z" transform="translate(-188.578 -176.474)" fill="#263238"/></g><g transform="translate(0 64.48)"><path d="M228.878,236.073a66.577,66.577,0,0,1-35.068-9.27s8.851,18.1,35.038,15.589Z" transform="translate(-193.81 -226.803)" fill="#eb996e"/></g><g transform="translate(20.202 37.284)"><path d="M207.537,207.707a6.51,6.51,0,0,0-5.84-2.4,5.939,5.939,0,0,0-4.1,2.211,3.762,3.762,0,0,0-.277,4.3c.977,1.369,3.014,1.681,4.736,1.187a13.662,13.662,0,0,0,4.61-2.765,3.985,3.985,0,0,0,1.029-1.071,1.205,1.205,0,0,0-.009-1.343" transform="translate(-196.769 -205.264)" fill="#eb996e"/></g><g transform="translate(21.273 33.541)"><path d="M195.723,202.3c.587-.035.6,3.885,3.965,6.661s7.533,2.335,7.565,2.881c.056.246-.928.764-2.692.816a9.757,9.757,0,0,1-6.315-2.184,8.5,8.5,0,0,1-3.073-5.585C195.02,203.251,195.456,202.279,195.723,202.3Z" transform="translate(-195.141 -202.3)" fill="#263238"/></g></g><g transform="translate(4.445 5.91)"><path d="M221.475,174.664c-.354.982-3.961.525-8.2,1.045-4.248.436-7.661,1.683-8.225.8-.251-.42.342-1.345,1.721-2.3a14.369,14.369,0,0,1,12.51-1.409C220.843,173.428,221.628,174.2,221.475,174.664Z" transform="translate(-204.998 -171.972)" fill="#263238"/></g><g transform="translate(41.16)"><path d="M191.471,171.018c-.633.822-3.123-.024-6.115-.057-2.99-.139-5.523.563-6.109-.294-.256-.415.141-1.237,1.246-2.016a8.849,8.849,0,0,1,9.849.283C191.4,169.773,191.75,170.618,191.471,171.018Z" transform="translate(-179.172 -167.291)" fill="#263238"/></g></g><path d="M191.207,243.122a23.238,23.238,0,0,0,27.645-25.7c-.814-6.427-4.279-12.966-2.051-19.05,2.946-8.043,14.22-10.517,17.211-18.542,1.739-4.666.178-10.122,2.149-14.694,1.854-4.3,6.376-6.774,10.778-8.365s9.123-2.691,12.819-5.563,6-8.3,3.616-12.324a247.929,247.929,0,0,0-57.184,13.894c-4.27,1.595-8.757,3.511-11.282,7.307-2.672,4.018-2.543,9.207-2.318,14.026q1.644,35.247,3.289,70.493" transform="translate(-191.207 -138.887)" fill="#263238"/></g><path d="M207.157,254.891a1.681,1.681,0,0,1-.423-.27l-1.164-.886c-1.011-.793-2.5-1.971-4.335-3.591a46.2,46.2,0,0,1-6.153-6.475,24.153,24.153,0,0,1-4.893-10.772c-.78-4.3-.207-9.709,3.375-13.771a53.039,53.039,0,0,1,6.1-5.2,14.23,14.23,0,0,0,4.755-6.486c1.936-5.336,1.073-11.513,1.821-17.826a35.488,35.488,0,0,1,7.419-18.031,24.477,24.477,0,0,1,7.76-6.342c2.97-1.567,6.187-2.213,9.158-3.091a21.332,21.332,0,0,0,8.036-3.96,31.608,31.608,0,0,0,5.834-6.432c3.287-4.669,5.717-9.644,8.849-13.792a29.909,29.909,0,0,1,5.157-5.475,19.7,19.7,0,0,1,6.114-3.33c4.224-1.442,8.682-.965,11.623,1.159a10.7,10.7,0,0,1,4.128,7.832,7.806,7.806,0,0,1-1.575,5.39,4.841,4.841,0,0,1-1.067,1.021c-.265.2-.405.294-.417.278s.1-.141.341-.367a5.676,5.676,0,0,0,.958-1.072,7.752,7.752,0,0,0,1.312-5.219,10.282,10.282,0,0,0-4.056-7.341c-2.761-1.922-6.972-2.337-10.989-.91a18.952,18.952,0,0,0-5.816,3.249,29.3,29.3,0,0,0-4.948,5.352c-3.033,4.081-5.417,9.043-8.749,13.835a32.48,32.48,0,0,1-6.009,6.676,22.391,22.391,0,0,1-8.408,4.186c-3.033.9-6.159,1.543-8.954,3.028a23.429,23.429,0,0,0-7.4,6.056,34.524,34.524,0,0,0-7.187,17.441c-.761,6.1.121,12.373-1.943,18.049a15.249,15.249,0,0,1-5.107,6.9,53.265,53.265,0,0,0-6.03,5.056c-3.359,3.739-3.989,8.844-3.283,13a23.679,23.679,0,0,0,4.6,10.518,48.16,48.16,0,0,0,5.94,6.529c1.779,1.66,3.219,2.894,4.181,3.744A12.909,12.909,0,0,1,207.157,254.891Z" transform="translate(-189.884 -128.335)" fill="#455a64"/></g></g><g transform="translate(-2.811 248.256)"><g transform="translate(0 9.211)"><path d="M326.936,231.609c-5.379-5.2-14.57-.679-19.084,5.288s-7.712,13.657-14.566,16.657-15.768.42-21.521,5.2c-7.932,6.589-3.479,21.859-12.053,27.585-3.4,2.274-7.894,2.193-11.533,4.07-8.573,4.421-8.473,16.516-7.147,26.072,1.859,13.409,3.9,27.311,11.3,38.648s21.8,19.314,34.617,14.94c12.312-4.2,18.632-17.489,23.64-29.5q10.394-24.921,20.787-49.84c4.009-9.611,8.057-19.367,9.361-29.7s-.45-21.488-7.019-29.568" transform="translate(-240.37 -229.329)" fill="#263238"/></g><g transform="translate(77.049)"><path d="M249.142,222.067c-3.909-.471-6.892,4.318-5.864,8.12s4.678,6.337,8.4,7.637a12.537,12.537,0,0,0,6.486.749,6.389,6.389,0,0,0,4.911-3.951,3.718,3.718,0,0,0-1.8-4.909c-2.571-1.609-4.078-2.871-6.108-3.99-3.1-1.712-2.919-1.943-6.024-3.655" transform="translate(-243.073 -222.035)" fill="#e8505b"/></g></g><g transform="translate(-2.819 265.567)"><g transform="translate(98.957)"><g transform="translate(0 9.67)"><path d="M250.644,258.565,235.459,247.06,178.253,243.4l-2.3,7.671,18.608,116.119L179.88,505.73h79.809Z" transform="translate(-175.951 -243.403)" fill="#e8505b"/></g><g transform="translate(11.996 215.408)" opacity="0.3"><path d="M180.2,413.784c1.825-1.948,4.818-4.63,7.486-4.69,19.108-.42,38.629-2.331,57.737-2.751l1.529,56.615c-4.571-8.06-8.9-16.445-10.1-25.632-.527-4.013-1.2-8.808-4.864-10.527-2.072-.972-4.5-.592-6.746-.148-6.9,1.365-13.758,3.148-20.781,3.583s-14.372-.587-20.27-4.423a12.375,12.375,0,0,1-4.849-5.237A6.413,6.413,0,0,1,180.2,413.784Z" transform="translate(-178.761 -406.343)"/></g><g transform="translate(3.358)"><path d="M250.166,262.919l1.769-16.6a5.263,5.263,0,0,0-4.76-5.8l-52.664-4.759a2.486,2.486,0,0,0-2.71,2.4l-.593,19.753,15.25,25.878,15.676,4.989H241.3L252.324,277Z" transform="translate(-191.207 -235.745)" fill="#e8505b"/><g transform="translate(7.774 15.032)"><path d="M191.9,248.448c.011.054.755-.078,2.106-.216a37.267,37.267,0,0,1,5.74-.1,56.449,56.449,0,0,1,8.432,1.215c3.145.659,6.563,1.586,10.186,2.467a66.872,66.872,0,0,0,10.369,1.846,26.791,26.791,0,0,0,8.6-.581,18.152,18.152,0,0,0,5.365-2.23,13.465,13.465,0,0,0,1.282-.924c.274-.235.41-.366.4-.384-.034-.045-.63.423-1.809,1.088a19.689,19.689,0,0,1-5.34,2,27.444,27.444,0,0,1-8.44.429,70.93,70.93,0,0,1-10.265-1.881c-3.609-.878-7.043-1.79-10.217-2.422a52.119,52.119,0,0,0-8.533-1.085,31.313,31.313,0,0,0-5.793.307c-.677.111-1.2.212-1.548.3A1.806,1.806,0,0,0,191.9,248.448Z" transform="translate(-191.895 -247.65)" fill="#263238"/></g><g transform="translate(13.097 15.345)" opacity="0.3"><path d="M237.774,250.992c1.409,3.876,1.45,8.678-1.412,11.651-2.332,2.422-6.075,3.027-9.373,2.369s-6.265-2.391-9.154-4.111c-7.25-4.316-14.617-8.782-22.852-10.611a2.981,2.981,0,0,1-1.48-.617.976.976,0,0,1-.048-1.426,1.377,1.377,0,0,1,.682-.2c7.284-.731,14.516,1.328,21.658,2.932s14.768,2.739,21.655.254" transform="translate(-193.167 -247.898)"/></g><g transform="translate(47.641 4.217)"><path d="M199.347,239.1a4.825,4.825,0,0,1,1.8,1.724c.832,1.335.787,3.6.72,6.051-.135,4.914-.946,8.842-.754,8.883a8.718,8.718,0,0,0,.713-2.539,39.17,39.17,0,0,0,.7-6.323,28.861,28.861,0,0,0-.072-3.52,6.165,6.165,0,0,0-.909-2.8,3.632,3.632,0,0,0-1.487-1.322C199.623,239.065,199.354,239.068,199.347,239.1Z" transform="translate(-199.345 -239.084)" fill="#263238"/></g><g transform="translate(33.196 2.805)"><path d="M211.634,253.833c.206-.02-.265-3.642.378-8.038.606-4.4,2.066-7.75,1.873-7.827a7.019,7.019,0,0,0-1.077,2.139,25.857,25.857,0,0,0-1.612,11.373A6.963,6.963,0,0,0,211.634,253.833Z" transform="translate(-211.103 -237.966)" fill="#263238"/></g><g transform="translate(15.052 1.413)"><path d="M227.292,236.865a4.994,4.994,0,0,0-1,1.955,13.586,13.586,0,0,0,.691,10.4,5.019,5.019,0,0,0,1.254,1.8c.192-.091-1.744-2.921-1.979-6.977C225.95,239.992,227.493,236.93,227.292,236.865Z" transform="translate(-225.569 -236.864)" fill="#263238"/></g></g></g><g transform="translate(162.489 16.376)"><g transform="translate(23.102 15.924)"><path d="M132.162,261.326s17.953,12.024,22.67,33.743C158.54,312.141,168.7,402.315,168.7,402.315l17.786,34.632-11.614,27.627h0a42.425,42.425,0,0,1-27.9-7.977l-7.817-5.672-14.33-21.262Z" transform="translate(-124.823 -261.326)" fill="#ebebeb"/></g><path d="M149.892,248.714l30.44,15.924,7.183,23.607,6.4,68.421-12.051,80.216L203,504.09l-36.452.271-.866-39.4-3.639-127.527L158.469,256.2Z" transform="translate(-149.892 -248.714)" fill="#ebebeb"/><g transform="translate(14.14 7.077)"><path d="M172.439,353.547a6.888,6.888,0,0,0,.566-.95q.561-1.034,1.514-2.792c.63-1.227,1.24-2.8,2.03-4.6.375-.905.682-1.909,1.058-2.956s.771-2.154,1.076-3.35c2.865-9.45,4.762-23.1,4.363-38.151-.04-1.165-.085-2.318-.164-3.466l-.014-.2-.186-.078-5.327-2.239.076.552,5.321-4.277.111-.088.005-.131c.25-5.673-1.129-10.776-2.424-15.22-1.34-4.453-2.807-8.291-4.09-11.443s-2.408-5.618-3.208-7.293c-.4-.838-.716-1.48-.939-1.909a3.562,3.562,0,0,0-.366-.639,4.187,4.187,0,0,0,.268.686c.213.492.495,1.139.846,1.95.74,1.7,1.8,4.188,3.035,7.353s2.647,7.008,3.941,11.449c1.253,4.423,2.577,9.521,2.312,15.018l.117-.22-5.333,4.26-.424.34.5.212,5.325,2.246-.2-.277c.077,1.125.121,2.279.16,3.436.4,14.984-1.415,28.575-4.152,38-.288,1.194-.679,2.3-1.025,3.346s-.648,2.049-1,2.957c-.755,1.8-1.328,3.38-1.919,4.619q-.881,1.786-1.4,2.838A7.1,7.1,0,0,0,172.439,353.547Z" transform="translate(-171.837 -254.319)" fill="#263238"/></g><g transform="translate(38.432 53.688)"><path d="M156.56,391.764a6.13,6.13,0,0,0,.293-.99q.269-1.072.72-2.871c.314-1.246.676-2.777,1.028-4.568s.817-3.82,1.178-6.09c.4-2.264.822-4.746,1.163-7.428.407-2.674.684-5.549,1.008-8.573.547-6.054.914-12.735.92-19.753-.032-7.02-.424-13.7-.994-19.756-.335-3.022-.624-5.9-1.04-8.57-.351-2.681-.784-5.162-1.191-7.424-.369-2.269-.835-4.3-1.2-6.085s-.726-3.32-1.044-4.565q-.458-1.8-.73-2.868a6.161,6.161,0,0,0-.3-.989,6.153,6.153,0,0,0,.169,1.02q.227,1.08.609,2.893c.28,1.253.611,2.787.934,4.581s.764,3.822,1.1,6.091c.376,2.263.782,4.743,1.109,7.419.393,2.668.66,5.538.977,8.553.535,6.039.908,12.7.939,19.7-.006,7-.354,13.657-.865,19.7-.307,3.015-.563,5.885-.946,8.556-.317,2.678-.713,5.158-1.082,7.422-.33,2.27-.755,4.3-1.08,6.1s-.641,3.331-.917,4.585q-.375,1.816-.6,2.9A6.021,6.021,0,0,0,156.56,391.764Z" transform="translate(-156.367 -291.234)" fill="#263238"/></g><g transform="translate(30.384 215.812)"><path d="M156.359,419.633a13.88,13.88,0,0,0,1.479,3.063,50,50,0,0,0,10.369,12.657,13.73,13.73,0,0,0,2.711,2.052,23.539,23.539,0,0,0-2.4-2.394,69.424,69.424,0,0,1-10.286-12.557A23.354,23.354,0,0,0,156.359,419.633Z" transform="translate(-156.353 -419.632)" fill="#263238"/></g></g><g transform="translate(0 5.834)"><g transform="translate(0 22.558)"><path d="M264.8,260.187a41.887,41.887,0,0,0-25.734,29.8c-9.955,43.9-26.994,102.285-27.262,121.121-.341,23.992,10.151,40.417,23.844,43.444,10.83,2.394,109-2.979,109-2.979L349.232,415l-79.494-11.7,10.885-60.823L269.851,258.23Z" transform="translate(-211.792 -258.23)" fill="#ebebeb"/></g><g transform="translate(36.821)"><path d="M246.936,262.923l21.979-8.981,23.172-13.576.146,3.971h0a23.259,23.259,0,0,0-2.756,16.108l19.281,100.593-4.374,73.495-8.973,72.024H225.7l32.011-75.323-11.3-101.5Z" transform="translate(-225.698 -240.365)" fill="#ebebeb"/></g><g transform="translate(37.697 166.812)"><path d="M211.508,425.157a2.669,2.669,0,0,0,.475.067l1.4.134c1.237.135,3.07.122,5.435.184,4.731.023,11.6-.1,20.139-.381,17.084-.571,40.872-1.713,67.72-3.27l.27-.016.034-.269c.548-4.357,1.125-8.954,1.712-13.619.987-7.893,1.951-15.589,2.874-22.958l.039-.312-.312-.045-60.7-8.825-17.824-2.529-4.789-.65-1.241-.154a2.282,2.282,0,0,0-.424-.033,2.3,2.3,0,0,0,.415.091l1.232.21,4.774.759,17.8,2.717,60.67,9.049-.272-.357c-.927,7.368-1.9,15.064-2.889,22.955-.585,4.666-1.16,9.262-1.707,13.619l.3-.284c-26.842,1.577-50.623,2.8-67.7,3.486-8.538.336-15.4.529-20.124.58-2.36-.024-4.193.026-5.426-.068l-1.4-.074A3.047,3.047,0,0,0,211.508,425.157Z" transform="translate(-211.508 -372.476)" fill="#263238"/></g><g transform="translate(58.04 100.653)"><path d="M277.044,320.08a2.946,2.946,0,0,0-.17.676c-.1.518-.229,1.162-.384,1.948-.327,1.789-.773,4.221-1.314,7.185-1.073,6.161-2.528,14.512-4.135,23.741-1.542,9.243-2.934,17.607-3.964,23.775-.465,2.977-.847,5.419-1.128,7.216-.111.794-.2,1.445-.274,1.969a2.84,2.84,0,0,0-.052.693,2.739,2.739,0,0,0,.182-.672c.106-.516.236-1.16.4-1.947.332-1.788.784-4.219,1.333-7.181,1.1-6.07,2.571-14.463,4.153-23.742s2.975-17.682,3.946-23.775c.457-2.979.832-5.422,1.109-7.22.106-.8.193-1.448.263-1.972A2.716,2.716,0,0,0,277.044,320.08Z" transform="translate(-265.615 -320.08)" fill="#263238"/></g><g transform="translate(89.909 7.083)"><path d="M230.622,245.975a.853.853,0,0,0-.088.244l-.2.735c-.16.652-.444,1.6-.7,2.861a89.7,89.7,0,0,0-1.677,10.826,122.716,122.716,0,0,0-.418,16.516c.215,6.278.88,13.224,1.827,20.581l.03.232.232.044,7.185,1.332-.245-.443c-.408,1.1-.835,2.29-1.162,3.518-2.337,8.533-1.311,17.165.821,24.385a76.826,76.826,0,0,0,8.441,18.185c3,4.866,5.712,8.609,7.575,11.2l2.181,2.957.582.758c.134.169.207.251.217.245a1.291,1.291,0,0,0-.163-.284l-.529-.8-2.078-3.028c-1.8-2.631-4.45-6.412-7.387-11.291a78.109,78.109,0,0,1-8.258-18.114c-2.078-7.154-3.062-15.67-.768-24.04.322-1.2.739-2.369,1.138-3.451l.138-.372-.383-.071-7.187-1.325.263.277c-.96-7.342-1.649-14.264-1.9-20.518a127.753,127.753,0,0,1,.273-16.456,100.622,100.622,0,0,1,1.48-10.817c.224-1.261.47-2.221.593-2.88.059-.3.107-.544.146-.748A.89.89,0,0,0,230.622,245.975Z" transform="translate(-227.429 -245.975)" fill="#263238"/></g><g transform="translate(93.102 90.976)"><path d="M242.18,331.7V315.657s-.208-3.96,3.126-3.126,2.71,7.086,2.71,7.086.625,24.385-.835,24.176-2.019-2.085-2.019-2.085v-9.378Z" transform="translate(-242.178 -312.416)" fill="#e8505b"/></g><g transform="translate(79.233 110.936)"><path d="M244.273,328.552c0,.182,3.85.33,8.6.33s8.6-.148,8.6-.33-3.849-.328-8.6-.328S244.273,328.37,244.273,328.552Z" transform="translate(-244.273 -328.224)" fill="#263238"/></g><g transform="translate(47.478 34.027)"><path d="M262.957,267.32a11.73,11.73,0,0,0,1.8.667,41.756,41.756,0,0,1,4.769,2.063,37.085,37.085,0,0,1,12.9,10.991,27.392,27.392,0,0,1,2.535,4.131,26.085,26.085,0,0,1,1.525,4.25,42.653,42.653,0,0,1,1.28,7.584c.187,2.189.224,3.972.237,5.2a15.275,15.275,0,0,0,.045,1.917,8.3,8.3,0,0,0,.211-1.912,47.919,47.919,0,0,0-.03-5.243,39.884,39.884,0,0,0-1.158-7.7,25.934,25.934,0,0,0-1.528-4.37,27.106,27.106,0,0,0-2.588-4.243,35.723,35.723,0,0,0-13.223-11.021,33.2,33.2,0,0,0-4.9-1.891A9.837,9.837,0,0,0,262.957,267.32Z" transform="translate(-262.957 -267.314)" fill="#263238"/></g></g></g><g transform="translate(113.465 401.695)"><g transform="translate(0 35.899)"><path d="M270.594,372.986,155.747,415.523l-96.812,14.8,115.105-56.114Z" transform="translate(-58.936 -372.986)" fill="#263238"/><g transform="translate(96.811 14.554)"><g transform="translate(56.488 6.287)"><path d="M100.87,414.517a48.931,48.931,0,0,1,6.116-17.4,13.014,13.014,0,0,0,1.567-3.268,3.746,3.746,0,0,0-.65-3.428c-1.475-1.6-4.169-.89-5.98.322-3.75,2.511-6.26,6.56-7.734,10.826a62.751,62.751,0,0,0-2.528,13.277" transform="translate(-91.662 -389.492)" fill="#ffbe9d"/></g><path d="M114.962,404.89h5.711a11.135,11.135,0,0,1,5.008-2.878c1.317-.376,2.611.324,3.778,1.471-2.552-4.206-5.3-8.836-5.833-10.1-1.027-2.466,1.234-4.317,4.933-4.317S148.5,412.085,148.5,412.085s-10.092-18.517-11.07-21.345c-2.445-7.071,5.286-7.6,8.094-4.187,3.484,4.234,17.57,25.532,17.57,25.532s2.672,4.316.822,8.427-7.195,2.466-7.195,2.466a6.894,6.894,0,0,1-3.769,5.715c-4.124,2.292-9.551-.366-9.551-.366l-21.006,4.724s-3.335-.337-7.6-.76A23.321,23.321,0,0,1,94.027,412.5h0Z" transform="translate(-94.027 -384.512)" fill="#ffbe9d"/><g transform="translate(35.078 18.653)"><path d="M111.769,399.285c-.234.143,2.558,4.542,6.188,9.813,1.816,2.639,3.5,5,4.74,6.695a17.337,17.337,0,0,0,2.128,2.658,17.716,17.716,0,0,0-1.745-2.923c-1.146-1.759-2.765-4.164-4.581-6.8s-3.48-5.009-4.7-6.716c-.537-.742-1.019-1.408-1.457-2.011A4.226,4.226,0,0,0,111.769,399.285Z" transform="translate(-111.756 -399.285)" fill="#eb996e"/></g><g transform="translate(25.687 18.962)"><path d="M131.761,422.656a19.225,19.225,0,0,0-1.865-3.441c-1.24-2.07-3.011-4.893-4.953-8.013-.966-1.562-1.9-3.052-2.662-4.427a5.091,5.091,0,0,1-.462-3.9,9.659,9.659,0,0,1,1.793-3.345c-.023-.028-.35.174-.817.682a6.742,6.742,0,0,0-1.424,2.538,5.464,5.464,0,0,0,.374,4.3c.754,1.431,1.671,2.924,2.639,4.493,1.948,3.128,3.78,5.912,5.121,7.916A28.7,28.7,0,0,0,131.761,422.656Z" transform="translate(-121.098 -399.53)" fill="#eb996e"/></g><g transform="translate(20.322 27.161)"><path d="M132.7,423.042a12.05,12.05,0,0,0-1.117-3.278l-1.5-3.424a27.266,27.266,0,0,1-1.542-4.24,4.951,4.951,0,0,1,.664-4.1,3.922,3.922,0,0,1,1.5-1.069,4.217,4.217,0,0,1,1.566-.437,6.231,6.231,0,0,1,2.263.79c.533.265.843.393.865.352s-.241-.239-.737-.575a10.941,10.941,0,0,0-.942-.567,3.5,3.5,0,0,0-1.444-.466,4.465,4.465,0,0,0-1.79.4,4.366,4.366,0,0,0-1.751,1.188,5.434,5.434,0,0,0-.832,4.631,24.316,24.316,0,0,0,1.629,4.341c.593,1.284,1.163,2.417,1.633,3.371C132.111,421.859,132.608,423.07,132.7,423.042Z" transform="translate(-127.715 -406.023)" fill="#eb996e"/></g><g transform="translate(13.551 24.291)"><path d="M140.8,403.759a2.271,2.271,0,0,0-.894.27,10.308,10.308,0,0,0-2.2,1.29,11.978,11.978,0,0,0-3.4,15.229,10.345,10.345,0,0,0,1.438,2.1c.405.444.665.653.694.625.095-.078-.84-1.033-1.715-2.931A12.168,12.168,0,0,1,138,405.682C139.6,404.337,140.851,403.869,140.8,403.759Z" transform="translate(-132.915 -403.75)" fill="#eb996e"/></g><g transform="translate(58.417 12.22)"><path d="M95.659,394.192c-.15.1,1.979,3.51,4.755,7.613s5.15,7.345,5.3,7.244-1.979-3.51-4.756-7.613S95.809,394.091,95.659,394.192Z" transform="translate(-95.651 -394.19)" fill="#eb996e"/></g></g></g><g transform="translate(14.625 30.532)"><path d="M154.906,387.345l13.129-2.976,12.609-11.878a8.958,8.958,0,0,1,5.624-2.421l22.945-1.321a8.957,8.957,0,0,1,6.292,2.1L231.91,384.71l-71.556,34.884-9.821.867Z" transform="translate(-150.533 -368.735)" fill="#ffbe9d"/><g transform="translate(43.269 11.089)"><path d="M158.825,378.908c.019.1,1.7-.207,4.421-.552,2.678-.294,6.614-.669,10.39,1.078a26.956,26.956,0,0,1,4.952,3.095c1.452,1.088,2.753,2.1,3.9,2.873a21.209,21.209,0,0,0,2.837,1.653,3.939,3.939,0,0,0,1.134.412c.045-.1-1.513-.794-3.7-2.443-1.1-.813-2.364-1.852-3.8-2.976a25.47,25.47,0,0,0-5.048-3.211,14.817,14.817,0,0,0-5.86-1.311,25.953,25.953,0,0,0-4.866.371c-1.367.222-2.457.472-3.206.655A4.151,4.151,0,0,0,158.825,378.908Z" transform="translate(-158.825 -377.518)" fill="#eb996e"/></g><g transform="translate(38.563 24.171)"><path d="M171.758,388.963c.043.1.941-.307,2.475-.47a13.357,13.357,0,0,1,5.9.822,31.037,31.037,0,0,1,5.4,2.773,10.893,10.893,0,0,0,2.231,1.246A9.2,9.2,0,0,0,185.8,391.7a23.31,23.31,0,0,0-5.435-3,12.094,12.094,0,0,0-6.193-.663A4.844,4.844,0,0,0,171.758,388.963Z" transform="translate(-171.757 -387.878)" fill="#eb996e"/></g><g transform="translate(9.022 15.52)"><path d="M200.836,392.884c.16.1,2.011-2.641,4.448-5.9s4.528-5.825,4.387-5.95-2.463,2.263-4.913,5.557S200.686,392.794,200.836,392.884Z" transform="translate(-200.827 -381.027)" fill="#eb996e"/></g></g><g transform="translate(29.817)"><path d="M202.241,376.46l-29.089-27.094a2.778,2.778,0,0,1,.2-4.236h0a2.777,2.777,0,0,1,3.546.135l34.108,30.591" transform="translate(-172.268 -344.555)" fill="#e8505b"/></g><g transform="translate(29.817)" opacity="0.3"><path d="M202.241,376.46l-29.089-27.094a2.778,2.778,0,0,1,.2-4.236h0a2.777,2.777,0,0,1,3.546.135l34.108,30.591" transform="translate(-172.268 -344.555)"/></g></g></g></svg>