<svg xmlns="http://www.w3.org/2000/svg" xmlns:xlink="http://www.w3.org/1999/xlink" width="32.967" height="32.967" viewBox="0 0 32.967 32.967"><defs><linearGradient id="a" x1="0.5" x2="1.492" y2="0.5" gradientUnits="objectBoundingBox"><stop offset="0" stop-color="#9acb49"/><stop offset="1" stop-color="#689e13"/></linearGradient></defs><path d="M28.029,7.04A16.341,16.341,0,0,0,2.318,26.754L0,35.217l8.661-2.274a16.286,16.286,0,0,0,7.808,1.987h.007A16.493,16.493,0,0,0,32.967,18.594,16.4,16.4,0,0,0,28.029,7.04ZM16.476,32.178a13.554,13.554,0,0,1-6.917-1.891l-.493-.294L3.93,31.339,5.3,26.327l-.324-.515a13.6,13.6,0,1,1,25.233-7.219A13.73,13.73,0,0,1,16.476,32.178Zm7.447-10.17c-.4-.206-2.414-1.192-2.789-1.325s-.648-.206-.92.206-1.052,1.325-1.3,1.6-.478.309-.883.1c-2.4-1.2-3.974-2.141-5.556-4.857-.419-.721.419-.67,1.2-2.23a.756.756,0,0,0-.037-.714c-.1-.206-.92-2.215-1.258-3.032-.331-.795-.67-.684-.92-.7s-.508-.015-.78-.015a1.512,1.512,0,0,0-1.089.508,4.587,4.587,0,0,0-1.428,3.407A8,8,0,0,0,9.831,19.19c.206.272,2.877,4.393,6.976,6.167,2.59,1.119,3.606,1.214,4.9,1.023a4.181,4.181,0,0,0,2.752-1.943,3.414,3.414,0,0,0,.235-1.943C24.6,22.31,24.328,22.207,23.923,22.008Z" transform="translate(0 -2.25)" fill="url(#a)"/></svg>