<svg xmlns="http://www.w3.org/2000/svg" width="115.518" height="115.517" viewBox="0 0 115.518 115.517"><g transform="translate(-0.001 0)"><path d="M41.573,465.386H10.663A3.159,3.159,0,0,1,7.5,462.227v-5.077a3.159,3.159,0,0,1,3.159-3.159h30.91a3.159,3.159,0,0,1,3.159,3.159v5.077A3.159,3.159,0,0,1,41.573,465.386Zm0,0" transform="translate(-5.811 -351.562)" fill="#c5c9f7"/><path d="M131.4,453.992h-7.9a3.159,3.159,0,0,1,3.159,3.159v5.077a3.159,3.159,0,0,1-3.159,3.159h7.9a3.159,3.159,0,0,0,3.159-3.159v-5.077A3.159,3.159,0,0,0,131.4,453.992Zm0,0" transform="translate(-95.638 -351.562)" fill="#9fa2c7"/><path d="M63.5,76.2H75.462v85.238H63.5Zm0,0" transform="translate(-49.176 -59.007)" fill="#e1e3fa"/><path d="M91.5,76.2h5.641v85.238H91.5Zm0,0" transform="translate(-70.858 -59.007)" fill="#b1b2c4"/><path d="M58.392,23H41.854A3.351,3.351,0,0,1,38.5,19.649V17.032A9.533,9.533,0,0,1,48.036,7.5H52.21a9.533,9.533,0,0,1,9.533,9.533v2.617A3.351,3.351,0,0,1,58.392,23Zm0,0" transform="translate(-29.816 -5.808)" fill="#1a753b"/><path d="M80.088,7.5H75.914a9.535,9.535,0,0,0-1.41.1,9.533,9.533,0,0,1,8.122,9.428V19.65A3.35,3.35,0,0,1,79.275,23H86.27a3.35,3.35,0,0,0,3.351-3.35V17.033A9.533,9.533,0,0,0,80.088,7.5Zm0,0" transform="translate(-57.694 -5.808)" fill="#1a753b"/><path d="M326.005,200.118H279.088A5.088,5.088,0,0,1,274,195.03V161.664h52L314.16,180.89Zm0,0" transform="translate(-212.179 -125.189)" fill="#94c840"/><path d="M444.617,161.66h-7.446l-8.431,13.685a10.565,10.565,0,0,0,0,11.083l8.431,13.685h7.446l-11.845-19.226Zm0,0" transform="translate(-330.791 -125.186)" fill="#1a753b"/><path d="M163.1,152.383H116.5V113.929h46.6a5.088,5.088,0,0,1,5.088,5.088V147.3a5.088,5.088,0,0,1-5.088,5.087Zm0,0" transform="translate(-90.218 -88.224)" fill="#94c840"/><path d="M290.507,113.93h-9.476a5.088,5.088,0,0,1,5.088,5.088V147.3a5.088,5.088,0,0,1-5.088,5.087h9.476a5.087,5.087,0,0,0,5.087-5.087V119.018A5.088,5.088,0,0,0,290.507,113.93Zm0,0" transform="translate(-217.624 -88.225)" fill="#1a753b"/><path d="M103.967,55.7l11.3-18.34a1.694,1.694,0,0,0-1.441-2.58H79.662V30.793a6.787,6.787,0,0,0-6.78-6.78h-44.9V18.884h.6a5.048,5.048,0,0,0,5.042-5.043V11.225A11.237,11.237,0,0,0,22.393,0H18.219A11.237,11.237,0,0,0,6.995,11.225v2.618a5.048,5.048,0,0,0,5.042,5.042h.6V37.069a1.692,1.692,0,1,0,3.384,0V18.884h8.574v81.854H16.02V43.385a1.692,1.692,0,0,0-3.384,0v57.353H4.851A4.856,4.856,0,0,0,0,105.589v5.076a4.856,4.856,0,0,0,4.851,4.851H35.761a4.856,4.856,0,0,0,4.851-4.851v-5.076a4.856,4.856,0,0,0-4.851-4.851H27.977V65.851H60.128v3.99a6.788,6.788,0,0,0,6.78,6.78H90.061a1.692,1.692,0,0,0,0-3.384H66.908a3.4,3.4,0,0,1-3.4-3.4v-3.99h9.369a6.787,6.787,0,0,0,6.78-6.779v-20.9h31.133L100.539,54.814a1.694,1.694,0,0,0,0,1.775l10.256,16.648H96.378a1.692,1.692,0,0,0,0,3.384h17.447a1.694,1.694,0,0,0,1.441-2.58ZM12.037,15.5a1.66,1.66,0,0,1-1.658-1.659V11.225a7.85,7.85,0,0,1,7.84-7.84h4.174a7.849,7.849,0,0,1,7.839,7.84v2.617A1.66,1.66,0,0,1,28.575,15.5Zm25.19,90.089v5.076a1.468,1.468,0,0,1-1.467,1.467H4.851a1.468,1.468,0,0,1-1.467-1.467v-5.076a1.468,1.468,0,0,1,1.467-1.467H35.761A1.468,1.468,0,0,1,37.227,105.589Zm39.05-46.518a3.4,3.4,0,0,1-3.4,3.4h-44.9V27.4h44.9a3.4,3.4,0,0,1,3.4,3.4Zm0,0"/></g></svg>