<svg xmlns="http://www.w3.org/2000/svg" width="130.373" height="142" viewBox="0 0 130.373 142"><path d="M128.463,137.84H106.934V115.823a1.917,1.917,0,1,0-3.82,0V137.84H98.658a3.338,3.338,0,0,1-3.183-3.467V113.05a3.338,3.338,0,0,1,3.183-3.467h29.8a2.088,2.088,0,0,0,0-4.16h-29.8a6.739,6.739,0,0,0-5.143,2.458c-.541-.754-12.135-13.3-12.812-14.04A9.32,9.32,0,0,0,73.8,90.725H71.68v-5.4h7.309a6.427,6.427,0,0,0,6.129-6.676,6.976,6.976,0,0,0-1.69-4.6,7.094,7.094,0,0,0,0-9.192,7.094,7.094,0,0,0,0-9.191,6.976,6.976,0,0,0,1.69-4.6A6.427,6.427,0,0,0,78.989,44.4H74.412A10,10,0,0,0,71.68,39.05V32.637H82.518a2.088,2.088,0,0,0,0-4.16H62.513V6.24a2,2,0,0,1,1.91-2.08H98.3a.668.668,0,0,1,.637.693v22.93a.668.668,0,0,1-.637.693H90.157a2.088,2.088,0,0,0,0,4.16H98.3a4.673,4.673,0,0,0,4.456-4.854V4.854A4.673,4.673,0,0,0,98.3,0H64.423a6.008,6.008,0,0,0-5.729,6.24v30.23H56.577a9.321,9.321,0,0,0-6.907,3.116C49,40.318,37.4,52.866,36.858,53.627a6.739,6.739,0,0,0-5.143-2.458H1.91a2.088,2.088,0,0,0,0,4.16H23.439V83.585H1.91a2.088,2.088,0,0,0,0,4.16h29.8a6.859,6.859,0,0,0,5.766-3.306,5.066,5.066,0,0,0,2.843.886h18.37V93.3a10,10,0,0,0-2.732,5.349H51.384a6.427,6.427,0,0,0-6.129,6.676,6.976,6.976,0,0,0,1.69,4.6,7.094,7.094,0,0,0,0,9.191,7.094,7.094,0,0,0,0,9.191,6.976,6.976,0,0,0-1.69,4.6,6.427,6.427,0,0,0,6.129,6.676H90.049a5.066,5.066,0,0,0,2.843-.886A6.857,6.857,0,0,0,98.658,142h29.8a2.088,2.088,0,0,0,0-4.16ZM34.9,80.119a3.338,3.338,0,0,1-3.183,3.467H27.259V55.329h4.456A3.338,3.338,0,0,1,34.9,58.8Zm44.091,1.046H68.674a2.525,2.525,0,0,1,0-5.031H78.989a2.525,2.525,0,0,1,0,5.031ZM67.86,85.325v5.4H64.746a8.235,8.235,0,0,0-2.233.31v-5.71Zm6.709-36.766h4.419a2.525,2.525,0,0,1,0,5.031H74.569Zm0,10.893v-1.7h4.419a2.525,2.525,0,0,1,0,5.031H73.85a7.987,7.987,0,0,0,.72-3.33Zm4.419,7.49a2.525,2.525,0,0,1,0,5.032H68.674a2.525,2.525,0,0,1,0-5.032Zm-16.476-34.3H67.86v4.144a8.234,8.234,0,0,0-2.233-.31H62.513ZM40.323,81.164a1.685,1.685,0,0,1-1.606-1.75v-19.7a5.8,5.8,0,0,1,1.5-3.945L52.37,42.529a5.676,5.676,0,0,1,4.207-1.9h9.05a5.372,5.372,0,0,1,5.122,5.58V59.451a3.069,3.069,0,1,1-6.115,0V50.836a1.917,1.917,0,1,0-3.82,0v8.615a7.7,7.7,0,0,0,2.893,6.1,7.115,7.115,0,0,0,.527,8.5,6.975,6.975,0,0,0-1.69,4.6A7.156,7.156,0,0,0,63,81.164Zm11.061,21.649H55.8v5.031H51.384a2.525,2.525,0,0,1,0-5.031Zm0,9.191H55.8v1.7a7.99,7.99,0,0,0,.72,3.33H51.384a2.525,2.525,0,0,1,0-5.032ZM61.7,135.419H51.384a2.525,2.525,0,0,1,0-5.031H61.7a2.525,2.525,0,0,1,0,5.031Zm0-9.192H51.384a2.525,2.525,0,0,1,0-5.031H61.7a2.525,2.525,0,0,1,0,5.031ZM73.8,94.885A5.676,5.676,0,0,1,78,96.783L90.156,110.02a5.8,5.8,0,0,1,1.5,3.945v19.7a1.685,1.685,0,0,1-1.606,1.75H67.375a7.156,7.156,0,0,0,.453-2.516,6.976,6.976,0,0,0-1.69-4.6,7.114,7.114,0,0,0,.527-8.5,7.7,7.7,0,0,0,2.893-6.1v-8.615a1.917,1.917,0,1,0-3.82,0v8.615a3.069,3.069,0,1,1-6.115,0V100.465a5.372,5.372,0,0,1,5.122-5.58H73.8Z" fill="#94c840"/></svg>