<svg xmlns="http://www.w3.org/2000/svg" width="472.805" height="99.041" viewBox="0 0 472.805 99.041"><path d="M81.95,51.59A60.032,60.032,0,0,1,78.1,63.03a79.482,79.482,0,0,1-6.435,11.66A83.358,83.358,0,0,1,63.03,85.58a69.471,69.471,0,0,1-10.4,9.13,56.276,56.276,0,0,1-11.715,6.435,37.061,37.061,0,0,1-12.65,2.695,17.893,17.893,0,0,1-8.8-1.76,17.62,17.62,0,0,1-6.82-5.94,18.724,18.724,0,0,1-2.805-6.16,27.787,27.787,0,0,1-.825-6.765,36.96,36.96,0,0,1,.66-6.93,47.855,47.855,0,0,1,1.76-6.655A25.137,25.137,0,0,1,6.49,64.9a27.444,27.444,0,0,1-3.63-5.94A32.054,32.054,0,0,1,.715,52.3a25.1,25.1,0,0,1-.5-6.765A21.183,21.183,0,0,1,4.785,33.495,20.377,20.377,0,0,1,15.51,26.4a25.2,25.2,0,0,1,13.805.11,60.581,60.581,0,0,1,12.815,5.5,60.24,60.24,0,0,1,7.2-4.345,40.662,40.662,0,0,1,8.58-3.3,26.016,26.016,0,0,1,8.855-.77,15.409,15.409,0,0,1,8.14,3.245,16.809,16.809,0,0,1,4.455,5.06,24.445,24.445,0,0,1,2.53,6.27,26.068,26.068,0,0,1,.77,6.765A35.574,35.574,0,0,1,81.95,51.59ZM62.48,73.04a70.713,70.713,0,0,0,6.435-14.245A72.545,72.545,0,0,0,71.94,44.44a11.746,11.746,0,0,1-7.645,1.815A41.815,41.815,0,0,1,55.77,44.55q-3.74-1.1-7.37-2.53l-7.26-2.86q-1.54,1.54-2.915,3.19t-2.695,3.3A88.366,88.366,0,0,0,29.1,55.935,66.158,66.158,0,0,0,24.31,67.32a31.245,31.245,0,0,0,8.91-2.75q.66-.33.55.33a3.656,3.656,0,0,1-.22.88A8.175,8.175,0,0,1,29.48,71a16.566,16.566,0,0,1-6.71,2.145,26.814,26.814,0,0,0-.66,3.245q-.22,1.6-.44,3.135a43.2,43.2,0,0,0-.22,4.51,30.759,30.759,0,0,0,.385,4.84A19.454,19.454,0,0,0,23.1,93.39a8.5,8.5,0,0,0,2.53,3.41,9.307,9.307,0,0,0,5.5,2.255,16.578,16.578,0,0,0,5.94-.77,25.174,25.174,0,0,0,5.72-2.64,34.513,34.513,0,0,0,4.84-3.575,47.93,47.93,0,0,0,8.195-8.8Q59.4,78.32,62.48,73.04ZM9.46,62.7a14.253,14.253,0,0,0,3.52,2.75,61.353,61.353,0,0,1,9.35-15.4A97.01,97.01,0,0,1,35.2,37.18a47.368,47.368,0,0,0-6.16-1.595,29.133,29.133,0,0,0-6.435-.5,20.239,20.239,0,0,0-6.27,1.21,17.044,17.044,0,0,0-9.3,8.745,17.535,17.535,0,0,0-1.54,6.05,16.02,16.02,0,0,0,.77,6.16A14.919,14.919,0,0,0,9.46,62.7ZM46.31,34.43q1.65,1.1,3.96,2.53t4.84,2.75a46.357,46.357,0,0,0,5.17,2.31,16.383,16.383,0,0,0,4.95,1.1,8.7,8.7,0,0,0,4.18-.77,6.321,6.321,0,0,0,2.97-3.3,23.3,23.3,0,0,0-.77-5.005,7.586,7.586,0,0,0-2.53-4.015,8.974,8.974,0,0,0-4.785-2.09,16.212,16.212,0,0,0-5.72.385,26.2,26.2,0,0,0-6.16,2.365A55.606,55.606,0,0,0,46.31,34.43Zm71.83,59.73a7.585,7.585,0,0,0,3.63-1.1,17.834,17.834,0,0,0,3.9-3.025,29.828,29.828,0,0,0,3.685-4.565,37.678,37.678,0,0,0,3.08-5.61,1.915,1.915,0,0,1,.935-1.155,1.354,1.354,0,0,1,1.045-.11,1.182,1.182,0,0,1,.66.77,2.143,2.143,0,0,1-.11,1.485,36.109,36.109,0,0,1-3.08,6.215,29.883,29.883,0,0,1-4.675,5.87,25.815,25.815,0,0,1-5.94,4.345A14.469,14.469,0,0,1,114.4,99a9.835,9.835,0,0,1-5.225-1.375,8.213,8.213,0,0,1-3.355-4.18,15.422,15.422,0,0,1-.77-6.875A32.138,32.138,0,0,1,107.69,77a94.284,94.284,0,0,0,4.73-13.145q.88-3.9-1.54-4.455-1.65-.33-4.18,1.54a26.025,26.025,0,0,0-5.61,6.545,100.891,100.891,0,0,0-6.71,12.43A175.519,175.519,0,0,0,87.01,99l-.11-.11h-.33q-4.84,0-6.765-3.575T79.97,85.8L90.86,54.34h1.21a6.751,6.751,0,0,1,3.41.88,7.9,7.9,0,0,1,2.53,2.255,7.729,7.729,0,0,1,1.32,3.135A6.463,6.463,0,0,1,99,64.13l-.44,1.1a33.835,33.835,0,0,1,6.985-7.865,12.459,12.459,0,0,1,7.865-2.915q8.58,0,10.175,5.956T120.56,77.945q-3.41,8.6-3.85,12.409T118.14,94.16Zm45.32-34.43a4.594,4.594,0,0,0-4.51-3.08q-2.75,0-5.225,2.86a29,29,0,0,0-4.4,7.15,50.253,50.253,0,0,0-3.08,9.295,41.507,41.507,0,0,0-1.155,9.295,18.42,18.42,0,0,0,1.21,7.15,4.242,4.242,0,0,0,4.18,2.86,14.441,14.441,0,0,0,9.515-3.8q4.455-3.795,8.3-11.715a2.5,2.5,0,0,1,.99-1.045,1.33,1.33,0,0,1,1.045-.11,1.152,1.152,0,0,1,.715.715,2,2,0,0,1-.11,1.43,39.05,39.05,0,0,1-4.565,8.36,29.218,29.218,0,0,1-5.555,5.83,21.4,21.4,0,0,1-6.16,3.41,19.157,19.157,0,0,1-6.27,1.1q-7.26,0-11.11-3.41a14.878,14.878,0,0,1-4.84-8.58,24.019,24.019,0,0,1,.715-11.165A35.491,35.491,0,0,1,138.6,65.12a31.758,31.758,0,0,1,9.35-8.58,23.668,23.668,0,0,1,12.54-3.41,10.392,10.392,0,0,1,4.785.99,6.339,6.339,0,0,1,2.805,2.64,2.939,2.939,0,0,1,.385,2.475,3.237,3.237,0,0,1-1.32,1.76,2.654,2.654,0,0,1-2.035.385A2.324,2.324,0,0,1,163.46,59.73Zm34.87-5.72q7.15.55,10.725,4.235a14.9,14.9,0,0,1,4.18,8.91,25.027,25.027,0,0,1-1.43,11.11,33.6,33.6,0,0,1-6.1,10.725,31.884,31.884,0,0,1-9.955,7.865A23.684,23.684,0,0,1,182.82,99.33q-7.04-.44-10.56-4.18a15.6,15.6,0,0,1-4.18-8.965,24.439,24.439,0,0,1,1.375-11.11,34.156,34.156,0,0,1,6.05-10.725,31.248,31.248,0,0,1,9.9-7.865A23.684,23.684,0,0,1,198.33,54.01ZM187.44,96.03a8.1,8.1,0,0,0,5.39-3.355,27.116,27.116,0,0,0,4.07-7.37,48.5,48.5,0,0,0,2.475-9.35,40.76,40.76,0,0,0,.55-9.24,16,16,0,0,0-1.815-6.93,4.485,4.485,0,0,0-4.51-2.475,7.662,7.662,0,0,0-5.39,3.245,26.932,26.932,0,0,0-4.07,7.425,49.786,49.786,0,0,0-2.475,9.405,38.556,38.556,0,0,0-.5,9.24,17.094,17.094,0,0,0,1.815,6.93A4.38,4.38,0,0,0,187.44,96.03Zm62.37-69.85Q244.2,42.46,239.8,55.44q-1.87,5.5-3.74,10.89t-3.355,9.735q-1.485,4.345-2.475,7.15t-1.1,3.245q-1.43,3.96-1.045,5.665T229.9,93.83a5.908,5.908,0,0,0,2.365-.715A11.905,11.905,0,0,0,235.4,90.75a27.2,27.2,0,0,0,3.41-4.345,36.265,36.265,0,0,0,3.3-6.655,1.988,1.988,0,0,1,.88-1.155,1.33,1.33,0,0,1,1.045-.11,1.161,1.161,0,0,1,.715.77,2.143,2.143,0,0,1-.11,1.485,34.046,34.046,0,0,1-8.36,13.2q-5.28,4.95-11.33,4.95a10.745,10.745,0,0,1-5.06-1.1,6.689,6.689,0,0,1-3.08-3.41,12.977,12.977,0,0,1-.77-5.885,33.005,33.005,0,0,1,1.87-8.415l15.07-43.56q1.87-5.61,5.06-7.975t9.13-2.365Zm22.33,27.83q7.15.55,10.725,4.235a14.9,14.9,0,0,1,4.18,8.91,25.027,25.027,0,0,1-1.43,11.11,33.6,33.6,0,0,1-6.1,10.725,31.884,31.884,0,0,1-9.955,7.865A23.684,23.684,0,0,1,256.63,99.33q-7.04-.44-10.56-4.18a15.6,15.6,0,0,1-4.18-8.965,24.439,24.439,0,0,1,1.375-11.11,34.156,34.156,0,0,1,6.05-10.725,31.248,31.248,0,0,1,9.9-7.865A23.684,23.684,0,0,1,272.14,54.01ZM261.25,96.03a8.1,8.1,0,0,0,5.39-3.355,27.117,27.117,0,0,0,4.07-7.37,48.5,48.5,0,0,0,2.475-9.35,40.76,40.76,0,0,0,.55-9.24,16,16,0,0,0-1.815-6.93,4.485,4.485,0,0,0-4.51-2.475,7.662,7.662,0,0,0-5.39,3.245,26.933,26.933,0,0,0-4.07,7.425,49.784,49.784,0,0,0-2.475,9.405,38.556,38.556,0,0,0-.5,9.24,17.094,17.094,0,0,0,1.815,6.93A4.38,4.38,0,0,0,261.25,96.03Zm61.93-41.69q10.01,0,14.19,6.49-2.2,6.49-4.4,12.87-1.87,5.5-4.015,11.66T325.16,96.47a19.484,19.484,0,0,0,6.1-2.31,28.257,28.257,0,0,0,9.3-8.855,35.32,35.32,0,0,0,2.97-5.555,1.915,1.915,0,0,1,.935-1.155,1.478,1.478,0,0,1,1.1-.11,1.161,1.161,0,0,1,.715.77,2.143,2.143,0,0,1-.11,1.485,33.681,33.681,0,0,1-2.97,6,28.982,28.982,0,0,1-4.62,5.665,31.138,31.138,0,0,1-6.38,4.675,27.131,27.131,0,0,1-8.25,2.915q-.77,2.2-1.32,3.685t-.66,1.925q-3.63,9.13-9.46,13.035a24.515,24.515,0,0,1-13.97,3.9q-6.05,0-9.13-3.025a10.247,10.247,0,0,1-3.245-7.1,14.078,14.078,0,0,1,2.53-8.25,17.4,17.4,0,0,1,8.2-6.49,10.151,10.151,0,0,1-4.62-5.665,20.479,20.479,0,0,1-1.045-8.745,32.373,32.373,0,0,1,2.53-9.955,30.893,30.893,0,0,1,6.16-9.35,31.9,31.9,0,0,1,9.79-6.93A31.566,31.566,0,0,1,323.18,54.34Zm2.09,4.95a3.587,3.587,0,0,0-.935-1.21,3.249,3.249,0,0,0-2.255-.66,9.124,9.124,0,0,0-6.16,2.695,28.1,28.1,0,0,0-5.335,6.765,52.96,52.96,0,0,0-4.07,8.855,54.918,54.918,0,0,0-2.42,8.855,20.781,20.781,0,0,0-.275,6.765q.44,2.7,2.42,2.7a4.916,4.916,0,0,0,2.585-.77,11.544,11.544,0,0,0,2.475-2.09,19.672,19.672,0,0,0,2.255-3.025q1.045-1.7,2.035-3.465a88.891,88.891,0,0,0,4.07-9.35Zm-26.73,60.17A6.558,6.558,0,0,0,303,117.645a20,20,0,0,0,3.85-4.95,48.065,48.065,0,0,0,3.355-7.26q1.54-4.125,3.08-8.745a13.844,13.844,0,0,0-6.82,1.7,21.033,21.033,0,0,0-5.39,4.235,21.947,21.947,0,0,0-3.685,5.445,19.915,19.915,0,0,0-1.76,5.445,7.861,7.861,0,0,0,.33,4.235A2.586,2.586,0,0,0,298.54,119.46Zm69.19-39.71a1.988,1.988,0,0,1,.88-1.155,1.33,1.33,0,0,1,1.045-.11,1.161,1.161,0,0,1,.715.77,2.143,2.143,0,0,1-.11,1.485,34.046,34.046,0,0,1-8.36,13.2q-5.28,4.95-11.33,4.95a10.745,10.745,0,0,1-5.06-1.1,6.689,6.689,0,0,1-3.08-3.41,12.977,12.977,0,0,1-.77-5.885,33,33,0,0,1,1.87-8.415l6.38-18.59a11.2,11.2,0,0,1,3.9-5.17,10.052,10.052,0,0,1,6.105-1.98h5.83q-2.64,7.48-4.84,13.97-.99,2.75-1.925,5.555t-1.815,5.28q-.88,2.475-1.54,4.4t-.99,2.915q-1.43,3.96-1.045,5.665a1.871,1.871,0,0,0,1.925,1.705,5.556,5.556,0,0,0,2.31-.715,13.218,13.218,0,0,0,3.135-2.365A25.3,25.3,0,0,0,364.43,86.4,36.265,36.265,0,0,0,367.73,79.75Zm.66-31.46a7.571,7.571,0,0,1-4.95,2.53,5.6,5.6,0,0,1-4.62-1.65,6.551,6.551,0,0,1-1.76-4.95,8.118,8.118,0,0,1,2.2-5.28,7.571,7.571,0,0,1,4.95-2.53,5.6,5.6,0,0,1,4.62,1.65,6.551,6.551,0,0,1,1.76,4.95A8.118,8.118,0,0,1,368.39,48.29Zm12.43,37.84a6.551,6.551,0,0,1,1.76,4.95,7.89,7.89,0,0,1-2.31,5.28,7.215,7.215,0,0,1-4.9,2.53,5.669,5.669,0,0,1-4.675-1.65,6.551,6.551,0,0,1-1.76-4.95,7.89,7.89,0,0,1,2.31-5.28,7.215,7.215,0,0,1,4.9-2.53A5.669,5.669,0,0,1,380.82,86.13Zm42.24-26.4a4.593,4.593,0,0,0-4.51-3.08q-2.75,0-5.225,2.86a29,29,0,0,0-4.4,7.15,50.25,50.25,0,0,0-3.08,9.295,41.508,41.508,0,0,0-1.155,9.295,18.42,18.42,0,0,0,1.21,7.15,4.242,4.242,0,0,0,4.18,2.86,14.441,14.441,0,0,0,9.515-3.8q4.455-3.795,8.3-11.715a2.5,2.5,0,0,1,.99-1.045,1.33,1.33,0,0,1,1.045-.11,1.152,1.152,0,0,1,.715.715,2,2,0,0,1-.11,1.43,39.051,39.051,0,0,1-4.565,8.36,29.218,29.218,0,0,1-5.555,5.83,21.4,21.4,0,0,1-6.16,3.41,19.157,19.157,0,0,1-6.27,1.1q-7.26,0-11.11-3.41a14.878,14.878,0,0,1-4.84-8.58,24.019,24.019,0,0,1,.715-11.165A35.492,35.492,0,0,1,398.2,65.12a31.757,31.757,0,0,1,9.35-8.58,23.667,23.667,0,0,1,12.54-3.41,10.393,10.393,0,0,1,4.785.99,6.339,6.339,0,0,1,2.805,2.64,2.939,2.939,0,0,1,.385,2.475,3.237,3.237,0,0,1-1.32,1.76,2.655,2.655,0,0,1-2.035.385A2.324,2.324,0,0,1,423.06,59.73Zm34.87-5.72q7.15.55,10.725,4.235a14.9,14.9,0,0,1,4.18,8.91,25.027,25.027,0,0,1-1.43,11.11A33.6,33.6,0,0,1,465.3,88.99a31.883,31.883,0,0,1-9.955,7.865A23.684,23.684,0,0,1,442.42,99.33q-7.04-.44-10.56-4.18a15.6,15.6,0,0,1-4.18-8.965,24.439,24.439,0,0,1,1.375-11.11,34.156,34.156,0,0,1,6.05-10.725,31.248,31.248,0,0,1,9.9-7.865A23.684,23.684,0,0,1,457.93,54.01ZM447.04,96.03a8.1,8.1,0,0,0,5.39-3.355,27.116,27.116,0,0,0,4.07-7.37,48.5,48.5,0,0,0,2.475-9.35,40.762,40.762,0,0,0,.55-9.24,16,16,0,0,0-1.815-6.93,4.485,4.485,0,0,0-4.51-2.475,7.661,7.661,0,0,0-5.39,3.245,26.932,26.932,0,0,0-4.07,7.425,49.786,49.786,0,0,0-2.475,9.405,38.557,38.557,0,0,0-.495,9.24,17.094,17.094,0,0,0,1.815,6.93A4.38,4.38,0,0,0,447.04,96.03Z" transform="translate(-0.168 -23.499)" fill="#9acb49"/></svg>