<svg xmlns="http://www.w3.org/2000/svg" width="109.975" height="110.03" viewBox="0 0 109.975 110.03"><g transform="translate(-25.108 -24.989)"><path d="M122.747,286.443l-.565.3c-2.282-2.769-6.235-3.842-9.248-2.316l-.032.016-1.334.718a10.128,10.128,0,0,0-11.6-1.048l-7.181,3.906H83.234a13.8,13.8,0,0,1-5.975-1.369l-1.315-.636a22.551,22.551,0,0,0-23.47,2.292c-.031.024-.062.048-.091.075l-3.174,2.825a11.009,11.009,0,0,1-4.154,2.315l-1.8-5.917a1.429,1.429,0,0,0-1.367-1.012H26.537a1.429,1.429,0,0,0-1.418,1.6l5.116,41.952a1.429,1.429,0,0,0,1.418,1.256H54.676a1.429,1.429,0,0,0,1.367-1.846l-3.024-9.925,9.42-5.954a5.668,5.668,0,0,1,4.135-.535c.03.007.059.014.089.019L85.824,316.7a24.8,24.8,0,0,0,15.322-2.163,1.414,1.414,0,0,0,.175-.1l33.142-22.756a1.429,1.429,0,0,0,.415-1.915A9.1,9.1,0,0,0,122.747,286.443Zm-8.506.531a4.879,4.879,0,0,1,5.336,1.18l-12.568,6.78-.738.389a10.9,10.9,0,0,0-1.721-3.127Zm-12.887-.354.034-.019a7.267,7.267,0,0,1,7.391.07l-6.39,3.44a10.858,10.858,0,0,0-4.081-1.837ZM32.917,328.55l-4.767-39.095H40.827L52.747,328.55Zm66.869-16.535a21.919,21.919,0,0,1-13.45,1.869l-19.114-3.52a8.52,8.52,0,0,0-6.212.842c-.022.012-.044.025-.066.039L52.152,316.8l-6.263-20.541a13.876,13.876,0,0,0,5.22-2.919l3.129-2.786A19.7,19.7,0,0,1,74.7,288.589l1.314.636a16.679,16.679,0,0,0,7.219,1.654H95.979a8.062,8.062,0,0,1,7.907,6.547l-9.239-.418a55.325,55.325,0,0,0-10.055.465,1.429,1.429,0,1,0,.392,2.831,52.385,52.385,0,0,1,9.533-.44l10.873.492h.065a1.429,1.429,0,0,0,1.429-1.429c0-.231-.01-.46-.024-.688l1.491-.786,15.753-8.5a6.243,6.243,0,0,1,7.512,1.2Z" transform="translate(0 -196.389)"/><path d="M76.974,435.8a4.5,4.5,0,1,0,4.5-4.5A4.5,4.5,0,0,0,76.974,435.8Zm4.5-1.641a1.641,1.641,0,1,1-1.641,1.641,1.641,1.641,0,0,1,1.641-1.641Z" transform="translate(-39.514 -309.547)"/><path d="M232.227,40.544V35.835a10.846,10.846,0,1,0-21.692,0v4.709a10.846,10.846,0,1,0,21.692,0Zm-18.835,0V35.835a7.988,7.988,0,1,1,15.977,0v4.709a7.988,7.988,0,1,1-15.977,0Z" transform="translate(-141.267)"/><path d="M96.832,167.434H131.8A1.429,1.429,0,0,0,133.226,166v-3.28h23.936a1.429,1.429,0,0,0,1.429-1.429v-9.275a10.71,10.71,0,0,0-10.028-10.682,1.668,1.668,0,0,0-1.472.814,6.557,6.557,0,0,1-10.346-.253,1.429,1.429,0,0,0-1.185-.579,10.593,10.593,0,0,0-5.256,1.533,12.012,12.012,0,0,0-8.383-4.158,1.738,1.738,0,0,0-1.473.857,7.694,7.694,0,0,1-12.14-.3,1.425,1.425,0,0,0-1.185-.579,11.959,11.959,0,0,0-8.3,3.62c-.181.185-.352.376-.519.57a10.624,10.624,0,0,0-4.872-1.529,1.671,1.671,0,0,0-1.472.814,6.557,6.557,0,0,1-10.345-.253,1.433,1.433,0,0,0-1.185-.579A10.706,10.706,0,0,0,70,152.022V161.3a1.429,1.429,0,0,0,1.429,1.429H95.4V166A1.429,1.429,0,0,0,96.832,167.434Zm38.12-23.21a9.417,9.417,0,0,0,14.1.037,7.856,7.856,0,0,1,6.684,7.761v7.846H133.226V150.7a11.955,11.955,0,0,0-1.321-5.471A7.724,7.724,0,0,1,134.951,144.224Zm-28.443-2.645a10.554,10.554,0,0,0,15.94.038,9.178,9.178,0,0,1,7.921,9.083v13.875H98.261V150.7A9.231,9.231,0,0,1,106.508,141.58ZM72.858,159.867v-7.846a7.9,7.9,0,0,1,6.967-7.8,9.416,9.416,0,0,0,14.1.036,7.8,7.8,0,0,1,2.789.984A11.972,11.972,0,0,0,95.4,150.7v9.167Z" transform="translate(-34.201 -86.614)"/><path d="M350.473,64.053V59.932a9.672,9.672,0,0,0-19.343,0v4.122a9.672,9.672,0,0,0,19.343,0Zm-16.486,0V59.932a6.814,6.814,0,0,1,13.628,0v4.122a6.814,6.814,0,0,1-13.628,0Z" transform="translate(-233.143 -19.253)"/><path d="M118.989,64.053V59.932a9.672,9.672,0,0,0-19.343,0v4.122a9.672,9.672,0,0,0,19.343,0Zm-16.486,0V59.932a6.814,6.814,0,0,1,13.628,0v4.122a6.814,6.814,0,1,1-13.628,0Z" transform="translate(-56.787 -19.253)"/></g></svg>